<?xml version="1.0" encoding="UTF-8"?>
<!DOCTYPE svg PUBLIC "-//W3C//DTD SVG 1.1//EN" "http://www.w3.org/Graphics/SVG/1.1/DTD/svg11.dtd">
<svg xmlns="http://www.w3.org/2000/svg" version="1.1" width="119px" height="114px" style="shape-rendering:geometricPrecision; text-rendering:geometricPrecision; image-rendering:optimizeQuality; fill-rule:evenodd; clip-rule:evenodd" xmlns:xlink="http://www.w3.org/1999/xlink">
<g><path style="opacity:1" fill="#0e0701" d="M 32.5,-0.5 C 37.5,-0.5 42.5,-0.5 47.5,-0.5C 59.7379,1.18978 71.4046,5.02312 82.5,11C 88.3361,12.1653 94.0028,13.832 99.5,16C 103.601,21.4321 106.101,27.5988 107,34.5C 109.254,38.0066 111.254,41.6733 113,45.5C 115.048,53.919 116.881,62.2524 118.5,70.5C 118.5,75.1667 118.5,79.8333 118.5,84.5C 113.312,86.1146 108.312,85.6146 103.5,83C 99.4792,75.9413 95.6459,68.7746 92,61.5C 89.9315,57.7637 86.9315,55.097 83,53.5C 61.616,73.7207 40.116,93.7207 18.5,113.5C 14.5,113.5 10.5,113.5 6.5,113.5C 3.42355,111.427 1.09021,108.761 -0.5,105.5C -0.5,101.5 -0.5,97.5 -0.5,93.5C 20.7969,74.0388 41.9635,54.3721 63,34.5C 63.6667,33.5 63.6667,32.5 63,31.5C 60.1667,29.3333 57.3333,27.1667 54.5,25C 47.1113,22.2198 39.9446,19.0531 33,15.5C 31.2762,10.1729 31.1095,4.83958 32.5,-0.5 Z"/></g>
<g><path style="opacity:1" fill="#d6e7ee" d="M 80.5,16.5 C 78.0898,18.1246 75.4232,19.458 72.5,20.5C 71.0695,20.4208 69.7362,20.7542 68.5,21.5C 65.6319,19.4682 62.6319,17.6349 59.5,16C 51.7096,13.6411 44.0429,11.1411 36.5,8.5C 36.5,7.16667 36.5,5.83333 36.5,4.5C 52.219,4.7624 66.8857,8.7624 80.5,16.5 Z"/></g>
<g><path style="opacity:1" fill="#90b1c4" d="M 36.5,8.5 C 44.0429,11.1411 51.7096,13.6411 59.5,16C 62.6319,17.6349 65.6319,19.4682 68.5,21.5C 69.7362,20.7542 71.0695,20.4208 72.5,20.5C 71.5213,22.1454 70.188,23.4787 68.5,24.5C 60.3979,18.6867 51.3979,15.0201 41.5,13.5C 38.856,12.8561 37.1894,11.1894 36.5,8.5 Z"/></g>
<g><path style="opacity:1" fill="#9b6433" d="M 90.5,21.5 C 89.8333,21.5 89.5,21.1667 89.5,20.5C 90.2039,18.6558 91.5372,18.1558 93.5,19C 96.07,21.0673 98.07,23.5673 99.5,26.5C 99.1667,26.8333 98.8333,27.1667 98.5,27.5C 95.7355,25.4703 93.0689,23.4703 90.5,21.5 Z"/></g>
<g><path style="opacity:1" fill="#dcebf1" d="M 85.5,17.5 C 87.4305,17.7706 88.7638,18.7706 89.5,20.5C 89.5,21.1667 89.8333,21.5 90.5,21.5C 91.4194,24.0892 93.086,26.0892 95.5,27.5C 95.5,28.1667 95.5,28.8333 95.5,29.5C 93.9826,29.4894 92.8159,28.8228 92,27.5C 91.5102,31.1461 89.6769,33.8128 86.5,35.5C 85.1526,36.0283 83.8193,36.195 82.5,36C 84.1211,31.9836 84.6211,27.8169 84,23.5C 80.6029,26.8788 78.4362,30.8788 77.5,35.5C 74.911,35.539 72.911,34.539 71.5,32.5C 73.7346,26.7414 77.4013,21.9081 82.5,18C 83.448,17.5172 84.448,17.3505 85.5,17.5 Z"/></g>
<g><path style="opacity:1" fill="#c2dde9" d="M 86.5,35.5 C 85.99,38.5394 85.3234,41.5394 84.5,44.5C 83.8333,44.5 83.1667,44.5 82.5,44.5C 82.5,42.1667 82.5,39.8333 82.5,37.5C 80.7376,37.6427 79.0709,37.3094 77.5,36.5C 76.8182,37.2427 76.1515,37.9094 75.5,38.5C 72.9558,37.2921 71.6225,35.2921 71.5,32.5C 72.911,34.539 74.911,35.539 77.5,35.5C 78.4362,30.8788 80.6029,26.8788 84,23.5C 84.6211,27.8169 84.1211,31.9836 82.5,36C 83.8193,36.195 85.1526,36.0283 86.5,35.5 Z"/></g>
<g><path style="opacity:1" fill="#495e6b" d="M 41.5,13.5 C 51.3979,15.0201 60.3979,18.6867 68.5,24.5C 70.188,23.4787 71.5213,22.1454 72.5,20.5C 75.4232,19.458 78.0898,18.1246 80.5,16.5C 82.4147,16.2155 84.0813,16.5489 85.5,17.5C 84.448,17.3505 83.448,17.5172 82.5,18C 77.4013,21.9081 73.7346,26.7414 71.5,32.5C 71.6225,35.2921 72.9558,37.2921 75.5,38.5C 77.2193,41.2195 79.5526,43.2195 82.5,44.5C 83.1667,44.5 83.8333,44.5 84.5,44.5C 89.2795,41.2234 93.6129,37.3901 97.5,33C 97.1918,31.5405 96.5251,30.3739 95.5,29.5C 95.5,28.8333 95.5,28.1667 95.5,27.5C 97.9113,28.517 99.578,30.1837 100.5,32.5C 100.649,33.552 100.483,34.552 100,35.5C 95.8975,40.1045 91.3975,44.1045 86.5,47.5C 77.5258,46.2017 71.5258,41.2017 68.5,32.5C 69.1365,29.6137 69.9699,26.947 71,24.5C 69.5589,25.2598 68.0589,25.9264 66.5,26.5C 59.0045,20.4536 50.6712,16.1202 41.5,13.5 Z"/></g>
<g><path style="opacity:1" fill="#94b4c7" d="M 95.5,29.5 C 96.5251,30.3739 97.1918,31.5405 97.5,33C 93.6129,37.3901 89.2795,41.2234 84.5,44.5C 85.3234,41.5394 85.99,38.5394 86.5,35.5C 89.6769,33.8128 91.5102,31.1461 92,27.5C 92.8159,28.8228 93.9826,29.4894 95.5,29.5 Z"/></g>
<g><path style="opacity:1" fill="#93b3c6" d="M 82.5,44.5 C 79.5526,43.2195 77.2193,41.2195 75.5,38.5C 76.1515,37.9094 76.8182,37.2427 77.5,36.5C 79.0709,37.3094 80.7376,37.6427 82.5,37.5C 82.5,39.8333 82.5,42.1667 82.5,44.5 Z"/></g>
<g><path style="opacity:1" fill="#91b0c3" d="M 101.5,40.5 C 99.6629,43.519 99.1629,46.8524 100,50.5C 103.281,57.394 106.281,64.394 109,71.5C 109.667,68.8333 110.333,68.8333 111,71.5C 111.494,69.8659 111.66,68.1992 111.5,66.5C 112.461,68.2646 112.795,70.2646 112.5,72.5C 112.5,74.1667 112.5,75.8333 112.5,77.5C 110.516,77.6168 108.85,76.9501 107.5,75.5C 104.609,68.0502 101.442,60.7169 98,53.5C 96.383,51.2368 94.5497,49.2368 92.5,47.5C 93.8823,44.6057 95.8823,42.1057 98.5,40C 99.7494,39.2599 100.749,39.4265 101.5,40.5 Z"/></g>
<g><path style="opacity:1" fill="#29343a" d="M 100.5,32.5 C 101.248,35.1702 102.248,37.8369 103.5,40.5C 102.833,40.5 102.167,40.5 101.5,40.5C 100.749,39.4265 99.7494,39.2599 98.5,40C 95.8823,42.1057 93.8823,44.6057 92.5,47.5C 91.5655,48.5676 91.2322,49.901 91.5,51.5C 89.8333,50.1667 88.1667,48.8333 86.5,47.5C 91.3975,44.1045 95.8975,40.1045 100,35.5C 100.483,34.552 100.649,33.552 100.5,32.5 Z"/></g>
<g><path style="opacity:1" fill="#c3dde9" d="M 101.5,40.5 C 102.167,40.5 102.833,40.5 103.5,40.5C 108.631,48.3467 111.298,57.0133 111.5,66.5C 111.66,68.1992 111.494,69.8659 111,71.5C 110.333,68.8333 109.667,68.8333 109,71.5C 106.281,64.394 103.281,57.394 100,50.5C 99.1629,46.8524 99.6629,43.519 101.5,40.5 Z"/></g>
<g><path style="opacity:1" fill="#6e3611" d="M 69.5,41.5 C 69.6854,43.1958 70.5187,44.5291 72,45.5C 72.8141,47.9018 72.6474,50.2351 71.5,52.5C 52.9841,70.1832 34.3175,87.6832 15.5,105C 13.0796,105.29 10.7463,105.79 8.5,106.5C 7.16667,105.833 6.16667,104.833 5.5,103.5C 6.5,103.5 7.5,103.5 8.5,103.5C 9.55198,103.649 10.552,103.483 11.5,103C 26.0321,88.7997 40.8655,74.9664 56,61.5C 59.2032,57.5965 62.0365,53.4298 64.5,49C 63.0696,47.5596 61.403,47.2263 59.5,48C 57.8863,50.1267 55.8863,51.6267 53.5,52.5C 57.8304,47.3367 62.6638,42.67 68,38.5C 69.0386,39.2438 69.5386,40.2438 69.5,41.5 Z"/></g>
<g><path style="opacity:1" fill="#465b68" d="M 92.5,47.5 C 94.5497,49.2368 96.383,51.2368 98,53.5C 101.442,60.7169 104.609,68.0502 107.5,75.5C 108.85,76.9501 110.516,77.6168 112.5,77.5C 112.5,75.8333 112.5,74.1667 112.5,72.5C 113.473,74.9479 113.806,77.6146 113.5,80.5C 110.735,80.2024 108.235,79.2024 106,77.5C 102.45,68.0628 97.6171,59.3961 91.5,51.5C 91.2322,49.901 91.5655,48.5676 92.5,47.5 Z"/></g>
<g><path style="opacity:1" fill="#965525" d="M 8.5,103.5 C 9.07217,101.745 9.9055,100.078 11,98.5C 23.5243,86.9749 35.691,75.1415 47.5,63C 47.1667,62.8333 46.8333,62.6667 46.5,62.5C 43.6067,64.4446 40.6067,66.1113 37.5,67.5C 42.7917,62.5091 48.125,57.5091 53.5,52.5C 55.8863,51.6267 57.8863,50.1267 59.5,48C 61.403,47.2263 63.0696,47.5596 64.5,49C 62.0365,53.4298 59.2032,57.5965 56,61.5C 40.8655,74.9664 26.0321,88.7997 11.5,103C 10.552,103.483 9.55198,103.649 8.5,103.5 Z"/></g>
<g><path style="opacity:1" fill="#a1612c" d="M 37.5,67.5 C 32.446,73.0574 27.1126,78.5574 21.5,84C 16.5588,88.7871 11.2254,92.9538 5.5,96.5C 16.1409,86.8618 26.8075,77.1951 37.5,67.5 Z"/></g>
<g><path style="opacity:1" fill="#bd8045" d="M 8.5,103.5 C 7.5,103.5 6.5,103.5 5.5,103.5C 4.24365,101.059 4.24365,98.7257 5.5,96.5C 11.2254,92.9538 16.5588,88.7871 21.5,84C 27.1126,78.5574 32.446,73.0574 37.5,67.5C 40.6067,66.1113 43.6067,64.4446 46.5,62.5C 46.8333,62.6667 47.1667,62.8333 47.5,63C 35.691,75.1415 23.5243,86.9749 11,98.5C 9.9055,100.078 9.07217,101.745 8.5,103.5 Z"/></g>
<g><path style="opacity:1" fill="#3e1706" d="M 69.5,41.5 C 73.5876,43.7241 75.7543,47.0574 76,51.5C 56.2239,69.6068 36.7239,88.1068 17.5,107C 14.1868,109.141 11.1868,108.974 8.5,106.5C 10.7463,105.79 13.0796,105.29 15.5,105C 34.3175,87.6832 52.9841,70.1832 71.5,52.5C 72.6474,50.2351 72.8141,47.9018 72,45.5C 70.5187,44.5291 69.6854,43.1958 69.5,41.5 Z"/></g>
</svg>
